# xmcd
#
# Track frame offsets:
#	150
#	19260
#	49027
#	63038
#	81381
#	104382
#	139995
#	180817
#
# Disc length: 2824 seconds
#
# Revision: 1
# Processed by: cddbd v1.5.1PL2 Copyright (c) Steve Scherf et al.
# Submitted via: dBpowerAMP V4.0
#
DISCID=610b0608
DTITLE=Savoy Brown - Blue Matter
DYEAR=1969
DGENRE=Blues
TTITLE0=Train to nowhere
TTITLE1=Tolling Bells
TTITLE2=She is got a Ring 
TTITLE3=Vicksburg Blues
TTITLE4=Don't trurn me from your Door
TTITLE5=May be wrong
TTITLE6=Louisiana Blues
TTITLE7=It Hurts me too
EXTD=
EXTT0=
EXTT1=
EXTT2=
EXTT3=
EXTT4=
EXTT5=
EXTT6=
EXTT7=
PLAYORDER=
